<svg width="30" height="28" viewBox="0 0 30 28" fill="none" xmlns="http://www.w3.org/2000/svg">
<path d="M12.0508 23.7471C13.2251 23.7471 14.1765 24.6988 14.1768 25.873C14.1768 27.0475 13.2252 27.9999 12.0508 28C10.8763 28 9.92383 27.0475 9.92383 25.873C9.92404 24.6988 10.8764 23.7471 12.0508 23.7471ZM20.5566 23.7471C21.731 23.7471 22.6834 24.6988 22.6836 25.873C22.6836 27.0475 21.7311 28 20.5566 28C19.3823 27.9998 18.4307 27.0474 18.4307 25.873C18.4309 24.6989 19.3824 23.7472 20.5566 23.7471ZM6.55664 2.83496L28.1768 3.18945C28.8265 3.42574 30.02 4.21819 29.5947 5.49414L24.4561 14.5312C24.0426 15.1219 22.9319 16.3395 21.7979 16.4814H10.2783L9.03809 19.4941H26.4053V22.3291H9.03809C7.62037 22.3291 4.99702 21.5137 5.84766 18.2529L7.97461 15.0635L3.0127 3.18945H0V0H5.13965L6.55664 2.83496ZM10.6328 13.1143H21.4434L25.5186 5.6709H7.44336L10.6328 13.1143Z" fill="#BCBCBC"/>
</svg>
