<svg width="22" height="28" viewBox="0 0 22 28" fill="none" xmlns="http://www.w3.org/2000/svg">
<path d="M6.69565 26.1739L9.43478 16.4348L11.8696 20.3913L12.7826 25.5652L10.9565 28L10.0435 20.3913L8.82609 27.6957L6.69565 26.1739Z" fill="#BCBCBC"/>
<path d="M0 17.9565V13.3913L4.56522 15.2174L7.30435 19.1739L6.3913 22.5217L2.73913 17.9565L5.47826 24.3478H3.95652L0 17.9565Z" fill="#BCBCBC"/>
<path d="M3.34783 11.2609L3.95652 6.08696L5.78261 9.43478L4.86957 13.3913L3.34783 11.2609Z" fill="#BCBCBC"/>
<path d="M11.8696 18.5652L17.3478 13.087L19.1739 13.3913L18.2609 17.9565L14.3043 22.8261L13.3913 22.5217L12.7826 20.087L11.8696 18.5652Z" fill="#BCBCBC"/>
<path d="M18.2609 9.43478L18.8696 7.30435L19.4783 9.43478L21.3043 10.0435L19.4783 10.3478L18.8696 12.4783L17.9565 10.6522L16.1304 9.73913L18.2609 9.43478Z" fill="#BCBCBC"/>
<path d="M5.17391 2.73913L6.08696 0L6.69565 2.73913L9.43478 3.65217L7 4.26087L6.08696 6.69565L5.17391 4.26087L2.73913 3.34783L5.17391 2.73913Z" fill="#BCBCBC"/>
<path fill-rule="evenodd" clip-rule="evenodd" d="M11.5652 2.73913L7 8.52174L5.78261 14.913L7.6087 17.9565L9.13043 14.3043L11.2609 17.3478L14.6087 14.3043L15.2174 7.91304L11.5652 2.73913ZM11.2609 8.21739L11.5652 6.08696L12.1739 8.21739H13.6957L12.4783 9.73913L10.6522 15.2174L10.9565 9.73913L8.21739 8.82609L11.2609 8.21739Z" fill="#BCBCBC"/>
</svg>
